<?xml version="1.0" encoding="UTF-8"?>
<!DOCTYPE svg PUBLIC "-//W3C//DTD SVG 1.1//EN" "http://www.w3.org/Graphics/SVG/1.1/DTD/svg11.dtd">
<!-- Creator: CorelDRAW 2019 (64-Bit) -->
<svg xmlns="http://www.w3.org/2000/svg" xml:space="preserve" width="19.304mm" height="19.304mm" version="1.1" style="shape-rendering:geometricPrecision; text-rendering:geometricPrecision; image-rendering:optimizeQuality; fill-rule:evenodd; clip-rule:evenodd"
viewBox="0 0 761.47 761.47"
 xmlns:xlink="http://www.w3.org/1999/xlink">
 <defs>
  <style type="text/css">
   <![CDATA[
    .fil0 {fill:#DCDDDD}
   ]]>
  </style>
 </defs>
 <g id="Layer_x0020_1">
  <metadata id="CorelCorpID_0Corel-Layer"/>
  <path class="fil0" d="M380.74 0c210.28,0 380.74,170.46 380.74,380.74 0,210.28 -170.46,380.74 -380.74,380.74 -210.28,0 -380.74,-170.46 -380.74,-380.74 0,-210.28 170.46,-380.74 380.74,-380.74zm145.06 605.49l-88.21 0 0 -52.9c-14.7,20.6 -32.18,36 -52.2,46.42 -20.03,10.3 -40.28,15.51 -60.66,15.51 -41.55,0 -77.09,-16.67 -106.72,-50.12 -29.52,-33.45 -44.33,-79.99 -44.33,-139.83 0,-61.12 14.35,-107.65 43.17,-139.49 28.82,-31.83 65.17,-47.69 109.16,-47.69 40.28,0 75.24,16.78 104.64,50.24l0 -179.42 95.15 0 0 497.28zm-254.2 -187.17c0,38.55 5.33,66.44 15.86,83.69 15.4,25 36.81,37.51 64.36,37.51 21.88,0 40.52,-9.38 55.79,-28.13 15.4,-18.75 23.04,-46.65 23.04,-83.92 0,-41.56 -7.41,-71.42 -22.34,-89.71 -14.93,-18.29 -33.92,-27.43 -57.18,-27.43 -22.57,0 -41.44,9.03 -56.72,27.08 -15.16,18.06 -22.8,45.03 -22.8,80.91z"/>
 </g>
</svg>
